<svg xmlns="http://www.w3.org/2000/svg" width="254.062" height="176.75" viewBox="0 0 254.062 176.75">
  <defs>
    <style>
      .cls-1 {
        fill: #cd7a1d;
        fill-rule: evenodd;
      }
    </style>
  </defs>
  <path id="bottom-left-shape" class="cls-1" d="M111.035,957.489c3.272,1.821,6.574,3.582,9.829,5.434,14.627,8.315,29.02,17.1,43.366,25.972-11.167-5.824-22.165-11.677-32.6-17.829C125.211,967.283,118.3,962.58,111.035,957.489Zm31.716,37.027c-10.7-6.6-21.389-13.22-32.137-19.712-8.738-5.264-17.726-10.324-26.793-15.337-18.553-12.021-38.865-24.447-58.025-31.6C17.067,922.946,8.435,917.9,0,912.632v-9.367c7.11,3.2,14.071,6.789,19.877,9.254,5.328,2.274,10.563,4.672,15.812,7.038,30.047,23.825,63.227,45.047,94.569,66.5C134.4,988.9,138.591,991.7,142.751,994.516Zm-22.386-11.694c9.969,5.777,20.3,11.507,30.735,17.328-2.789-1.881-5.577-3.749-8.349-5.634,6.2,3.815,12.414,7.564,18.6,11.414,18.007,10.15,36.03,20.77,52.992,32.45,8.88,5,18.382,10.42,24.193,18.17a0.065,0.065,0,0,1-.048-0.03c4.425,3.72,8.786,7.5,12.914,11.46-8.848-.51-19-11.29-27.1-17.56-9.128-4.19-18.147-8.86-27.073-13.78-29.752-21.49-64.474-39.305-93.7-56-14.035-8.019-30.967-15.259-47.682-23.091,18.787,9.233,37.246,18.918,55.144,28.509,28.677,15.4,57.028,34.439,86.235,50.579,13.724,9.9,26.482,20.53,36.965,32.32-39.848-27.03-79.258-53.81-121.611-77.169C76.61,971.97,39.053,954.422,1.231,938.4,0.824,938.224.409,938.03,0,937.85v-5.493c15.168,6.153,30.26,12.917,45.175,20.04C28.038,943.909,11.789,934.428,0,922.27v-0.423c8.129,0.421,16.834,2.678,25.8,6.025,19.192,10.792,38.85,21.022,58.025,31.6C97.327,968.249,109.914,976.781,120.365,982.822Zm-98.509-74.3c28.833,4.235,61.467,29.553,89.179,48.97C86.377,943.8,61.407,931.112,35.689,919.557,31.061,915.9,26.311,912.333,21.856,908.519ZM254.065,1043.24c-30.5-16.93-60-35.89-89.835-54.345C195.479,1005.17,228.145,1021.22,254.065,1043.24Zm-61.624,16.78c8.514,6.08,18.615,12.65,28.009,19.98H189.8q-12.411-7.17-24.586-14.71A1410.453,1410.453,0,0,0,0,955.787v-2.106c1.5,0.911,3,1.811,4.487,2.672,30.36,17.625,60.954,34.878,91.313,52.537,30.532,17.73,60.455,35.84,89.617,55.28-25.781-18.91-52.356-36.94-79.647-53.54C73.557,991.043,39.894,973.9,6.683,956.1c-2.121-1.14-4.369-2.274-6.683-3.417V938.63c27.689,15.651,55.161,31.619,82.14,48.583C119.354,1010.63,156.708,1034.42,192.441,1060.02ZM176.863,1080q-53.708-33.75-107.745-67.03C51.066,1001.89,25.4,983.21,0,970.706v-6.04c32.939,15.767,65.452,38.244,94.087,55.8,23.895,14.67,47.278,30.12,71.126,44.82q9.524,7.29,18.974,14.71h-7.324ZM0,977.862q8.72,5.97,17.68,11.733c-5.837-2.916-11.738-5.762-17.68-8.583v-3.15Zm156.443,99.818-3.069-1.49q-20.469-13.77-40.969-27.52c-30.062-20.21-63.212-38.86-94.725-59.075,24.534,12.225,48.228,25.335,71.874,39.935C113,1044.05,134.821,1060.79,156.443,1077.68ZM0,1000.34c2.175,1.41,4.342,2.83,6.5,4.24L0,1001.41v-1.07Zm0-12.415c23.561,12.565,46.457,25.965,69.256,41.185,10.11,6.76,20.049,13.75,30.018,20.7l-23.241-11.34C52.1,1024.47,26.283,1008.34,0,995.545v-7.62Z" transform="translate(0 -903.25)"/>
</svg>
