<svg xmlns="http://www.w3.org/2000/svg" width="223.31" height="157.312" viewBox="0 0 223.31 157.312">
  <defs>
    <style>
      .cls-1 {
        fill: #cd7a1d;
        fill-rule: evenodd;
      }
    </style>
  </defs>
  <path id="top-right-shape" class="cls-1" d="M1920,12.66c-0.05-.04-0.11-0.079-0.16-0.118C1913.61,8.635,1907.46,4.43,1901.37,0h9.03c3.12,1.648,6.36,3.359,9.6,5.15v7.51ZM1920,24c-10.7-8.141-21.51-16.013-32.39-23.747,3.38,2.258,6.76,4.437,10.11,6.727,6.08,4.151,15.46,9.461,22.28,14.921V24ZM1887.24,0c0.13,0.086.25,0.17,0.37,0.256L1887.22,0h0.02ZM1920,42.32v8.3c-3.21-1.606-6.4-3.266-9.63-4.868-3.32-2.336-6.73-4.578-10.16-6.82-15.52-14.121-35.2-27.242-53.96-38.934h8.38q4.575,3.814,9.16,7.575,22.83,14.879,45.47,30.1c-4.95-9.233-15.53-15.945-23.19-22.22-6.41-5.247-12.93-10.372-19.48-15.453h15.1C1898.21,13,1912.45,27.252,1920,42.32Zm-45.58-26.214A381.409,381.409,0,0,0,1911.1,41.97a23.486,23.486,0,0,0-1.79-4.235Q1892.045,26.571,1874.42,16.107Zm35.95,29.647c3.27,2.288,6.47,4.629,9.63,7v4.91q-2.79-1.923-5.55-3.906c2.02,2.487,3.88,5,5.55,7.533V73.652a66.162,66.162,0,0,1-12.37-6.987c-11.97-12.175-26.19-23-41.28-33.118Q1843.76,16.565,1820.73,0h12.8c22.39,12.169,45.3,24.82,66.68,38.934,1.36,1.229,2.63,2.46,3.91,3.69C1906.19,43.683,1908.28,44.711,1910.37,45.754Zm-2.74,20.911A153.018,153.018,0,0,1,1920,80.743v0.432c-14.43-2.951-27.34-14.862-39.65-22.435-5.4-3.316-10.81-6.711-16.25-10.106-23.72-17.7-50.94-32.975-74.55-48.635h22.62c17.81,10.81,36.52,21.7,54.18,33.547,3.38,2.538,6.77,5.061,10.14,7.6C1885.54,47.965,1896.35,58.833,1907.63,66.665Zm-9.68,12.847c-10.2-2.787-17.58-8.937-26.52-15.056C1839.83,42.733,1808.31,20.9,1776.15,0h0.7c8.56,4.385,17.12,8.764,25.74,13.04,21.09,10.447,41.4,23.059,61.51,35.595C1876.78,58.1,1888.53,68.191,1897.95,79.512Zm-86.96-28.7c-1.87-1.37-3.79-2.725-5.56-4.032Q1773.48,23.364,1741.49,0h13.63q4.77,2.759,9.56,5.487c49.53,28.137,95.53,63.5,145.28,90.576C1876.66,83.7,1843.59,68.067,1810.99,50.815ZM1920,140.4v16.929c-6.76-7.358-13.32-14.972-19.77-21.011-36.03-33.679-74.1-63.451-114.79-91.37-23.32-16.01-47.4-30.584-71.58-44.944h8.3c29.07,17.569,58.75,34.9,88.83,50.815C1844.09,74.64,1890.52,104.837,1920,140.4ZM1696.7,0h7.43l174.42,138.075C1813.1,98.708,1754.9,49.083,1696.7,0Z" transform="translate(-1696.69)"/>
</svg>
