<svg width="301" height="298" viewBox="0 0 301 298" fill="none" xmlns="http://www.w3.org/2000/svg">
<path d="M293.648 145.099L289.296 147.199L286.145 151.701L284.344 156.052L281.944 159.504L276.542 161.604L274.741 165.806L272.34 169.857L269.189 171.057L267.239 175.109L264.238 177.059L259.736 175.709L255.385 177.359L242.03 193.865L238.429 196.416L236.178 200.767L236.929 202.568L237.079 206.919L228.676 217.123L228.976 222.075L231.077 226.126L232.127 236.779L229.876 246.533L226.425 248.783L222.824 249.384L218.623 252.385L214.271 253.435L211.57 249.534L208.119 247.283L203.017 251.784L196.565 249.984L190.413 258.837L182.911 256.886L175.108 257.636L166.555 265.289L164.155 274.742L167.456 285.396L160.103 289.897L152.301 292.298L145.248 298L137.146 295.749L129.193 288.247L103.834 296.65L87.6291 286.296L81.7772 284.195L77.5758 285.396L74.4247 282.845L73.5244 278.343L76.6755 270.091L75.325 269.34L80.1266 262.288L87.6291 259.437L94.3814 259.887L97.5324 253.735L93.1809 251.034V245.782L98.1326 246.233L102.034 249.834L104.135 250.134L108.036 244.132V242.181L105.485 240.981L98.7328 239.33L97.3823 236.779L98.7328 234.229L106.385 228.527L118.689 219.224L104.735 213.822L92.4307 202.868L85.3784 188.163L86.4287 172.408L99.333 174.959L110.287 183.362L113.288 184.412L122.741 189.814L133.995 188.163L140.747 183.211L141.197 172.558L133.394 169.257L128.893 159.804L135.795 154.702L137.446 150.651L131.744 139.547L116.589 127.243L103.234 110.737L87.6291 128.893L78.9262 140.747L75.175 134.745L74.5748 130.244L75.4751 125.292V119.29L73.6745 114.789L34.0613 75.1752L29.8599 69.4733L20.5568 61.3706L20.7069 56.1188L19.5065 49.9668L11.2537 50.8671L4.2014 46.2155L0 37.2125L2.25075 27.4592L14.1047 21.9074L26.2587 20.7069L31.2104 24.6083L33.9113 25.2085L45.9153 8.55287L49.6665 5.10171L54.7682 6.45217L65.4217 3.00101L73.9746 5.85196L75.6251 19.2064L79.3764 31.6606L91.0803 39.7633L102.034 36.7623L98.5827 34.3615L96.4821 29.71L117.339 23.858L120.34 26.2588L122.741 34.8117L126.942 40.5136L135.345 45.0151L139.096 55.3686L137.596 62.571L140.147 68.423L144.048 73.3746L156.652 81.9275L161.604 83.2779L167.005 81.6274L169.106 79.9768L173.007 74.8751L180.96 72.1742L183.961 69.4733L185.161 62.571L187.112 59.8701L226.275 33.3112L227.476 27.6093V25.5086L230.627 24.3082L232.127 20.857L230.777 16.9557L233.027 14.855L239.63 12.1541L242.481 7.95267L244.881 2.40081L248.783 0.750252L254.935 0L260.036 16.8056L268.589 25.5086L275.642 28.8097L282.844 29.71L289.596 36.3122L292.597 49.3666L295.148 77.1259L298.899 92.5811L301 108.036L299.8 128.743L293.648 145.099Z" fill="#FF0031"/>
</svg>
