<svg width="77" height="57" viewBox="0 0 77 57" fill="none" xmlns="http://www.w3.org/2000/svg">
<path d="M16.7391 55.4698C13.2625 54.4497 8.11204 52.1544 5.27926 50.2416L0 46.9262L7.46823 40.2953L15.0652 33.6644L13.3913 26.0134C12.49 21.8054 11.9749 16.1946 12.2324 13.3893L12.6187 8.28859L19.5719 7.90604C25.8813 7.52349 26.5251 7.14094 27.8127 3.69799C28.5853 1.65772 29.8729 0 30.6455 0C33.607 0 37.5987 3.95302 37.985 7.26846C38.2425 9.18121 39.2726 10.8389 40.3027 10.9664C54.5953 12.8792 54.4666 12.8792 56.398 16.5772C58.0719 19.6376 59.2308 20.4027 62.9649 20.4027C66.9565 20.4027 67.7291 20.9128 69.5318 25.1208C70.5619 27.7987 72.7508 31.2416 74.1672 32.8993L77 35.8322L70.9482 41.5705L64.7676 47.3087L57.9431 42.0805C51.505 37.3624 50.4749 36.9799 42.7492 36.9799C38.2425 36.9799 32.3194 37.6174 29.4866 38.3825L24.5936 39.6577L25.3662 48.4564C26.3963 58.4027 26.7826 58.1476 16.7391 55.4698Z" fill="white"/>
</svg>
