<svg width="239" height="297" viewBox="0 0 239 297" fill="none" xmlns="http://www.w3.org/2000/svg">
<path d="M225.5 84.6403C260 76.6268 225.5 52.0855 163 40.0652C119.5 31.5509 113 29.0467 102 15.0231C89 -1.50474 79 -3.50811 50.5 4.50538C36 8.51213 30 15.0231 16.5 39.5644L0 69.615L10.5 87.1445C16.5 96.6605 25.5 104.674 30 104.674C44 104.674 56.5 136.227 53 163.774C50 183.807 52.5 192.822 67 224.876C83 259.935 84 263.942 78 278.467C74.5 286.981 72.5 294.994 73.5 296.497C75 297.499 90 295.996 107 292.49C124 288.984 154.5 282.974 175 279.468C211 272.957 212 272.456 221 252.423C233.5 225.377 233 220.87 216.5 207.347C208.5 200.836 199.5 186.311 196.5 175.794C191.5 158.765 192 151.753 202.5 121.703C211.5 94.6572 216.5 86.6437 225.5 84.6403Z" fill="#FF0031"/>
</svg>
