<svg width="112" height="139" viewBox="0 0 112 139" fill="none" xmlns="http://www.w3.org/2000/svg">
<path d="M105.674 39.613C121.841 35.8626 105.674 24.3769 76.3849 18.7513C56 14.7664 52.954 13.5944 47.7992 7.0312C41.7071 -0.704044 37.0209 -1.64165 23.6653 2.10877C16.8703 3.98398 14.0586 7.0312 7.73222 18.5169L0 32.581L4.9205 40.785C7.73222 45.2386 11.9498 48.989 14.0586 48.989C20.6192 48.989 26.477 63.7563 24.8368 76.6484C23.431 86.0245 24.6025 90.2437 31.3975 105.245C38.8954 121.653 39.364 123.529 36.5523 130.326C34.9121 134.311 33.9749 138.062 34.4435 138.765C35.1464 139.234 42.1757 138.53 50.1423 136.89C58.1088 135.249 72.4017 132.436 82.0084 130.795C98.8787 127.748 99.3473 127.514 103.565 118.137C109.423 105.48 109.188 103.37 101.456 97.0413C97.7071 93.9941 93.4895 87.1965 92.0837 82.274C89.7406 74.3044 89.9749 71.0228 94.8954 56.9587C99.113 44.301 101.456 40.5506 105.674 39.613Z" fill="white"/>
</svg>
