<svg width="199" height="21" viewBox="0 0 199 21" fill="none" xmlns="http://www.w3.org/2000/svg">
<path d="M10.2847 0.526367L0 19.3115H31.776L21.5623 0.526367H10.2847ZM18.1322 13.8198H13.7431L10.9457 15.9401L15.6185 6.81503H16.1519L20.87 15.9401L18.1322 13.8198Z" fill="#333333"/>
<path d="M155.828 0.526367L145.54 19.3115H177.316L167.102 0.526367H155.828ZM163.672 13.8198H159.283L156.486 15.9401L161.159 6.81503H161.695L166.41 15.9401L163.672 13.8198Z" fill="#333333"/>
<path d="M99.5923 11.8136H114.221V7.49767H99.5923V5.28814H114.97V0.526367H90.8057V19.3115H115.185V14.26H99.5923V11.8136Z" fill="#333333"/>
<path d="M180.708 0.526367H171.709V6.31349H180.708V19.3115H189.498V8.01313L186.746 6.31349H187.486H198.526V0.526367H187.486H180.708Z" fill="#333333"/>
<path d="M84.8018 12.5662C87.1821 11.995 88.8475 10.5935 88.8475 7.2165C88.8475 3.00919 86.731 0.749512 80.756 0.749512H61.4492V19.3034H70.1224V14.5667H76.2336L79.3005 19.3034H89.3242L84.8018 12.8448V12.5662ZM77.3174 9.91641H69.8585V6.3416H77.3174C78.6905 6.3416 79.431 6.96573 79.431 8.13319C79.431 9.30064 78.6905 9.92477 77.3174 9.92477V9.91641Z" fill="#333333"/>
<path d="M45.3719 12.934H49.8149C49.7071 13.1931 48.1126 14.3633 44.7903 14.3633C40.929 14.3633 39.0224 12.8838 39.0224 10.078C39.0224 7.37531 40.929 5.92087 44.5236 5.92087C47.5934 5.92087 48.7283 7.11619 48.9155 7.71524H59.1491C58.9647 2.88381 54.7856 0 44.552 0C34.3695 0 29.5293 3.14294 29.5293 9.97492C29.5293 16.8571 34.3156 20.0056 44.5662 20.0056C47.043 20.0056 50.5526 19.8133 51.8293 19.3034L53.5599 16.6007V19.3034H59.203V9.09167H45.3719V12.934Z" fill="#333333"/>
<path d="M146 9.09167H132.166V12.934H136.609C136.504 13.1931 134.907 14.3633 131.584 14.3633C127.723 14.3633 125.819 12.8838 125.819 10.078C125.819 7.37531 127.723 5.92087 131.32 5.92087C134.387 5.92087 135.525 7.11619 135.71 7.71524H145.946C145.764 2.88381 141.582 0 131.346 0C121.163 0 116.326 3.14294 116.326 9.97492C116.326 16.8571 121.112 20.0056 131.363 20.0056C133.84 20.0056 137.347 19.8133 138.626 19.3034L140.357 16.6007V19.3034H143.194L146 14.0986V9.09167Z" fill="#333333"/>
</svg>
