<svg width="18" height="13" viewBox="0 0 18 13" fill="none" xmlns="http://www.w3.org/2000/svg">
<path d="M17.081 2.78239C16.8865 2.05945 16.3165 1.48957 15.5937 1.29491C14.2732 0.933594 8.991 0.933594 8.991 0.933594C8.991 0.933594 3.70902 0.933594 2.3885 1.28121C1.67957 1.47567 1.09568 2.05955 0.901222 2.78239C0.553711 4.1028 0.553711 6.84118 0.553711 6.84118C0.553711 6.84118 0.553711 9.59335 0.901222 10.9C1.09589 11.6228 1.66566 12.1927 2.3886 12.3873C3.72292 12.7488 8.99121 12.7488 8.99121 12.7488C8.99121 12.7488 14.2732 12.7488 15.5937 12.4011C16.3167 12.2066 16.8865 11.6367 17.0812 10.9139C17.4286 9.59335 17.4286 6.85508 17.4286 6.85508C17.4286 6.85508 17.4425 4.1028 17.081 2.78239ZM7.30927 9.37098V4.31137L11.7017 6.84118L7.30927 9.37098Z" fill="#FF0031"/>
</svg>
